<svg version="1.1" xmlns="http://www.w3.org/2000/svg" style="display: block;" viewBox="0 0 2048 2048" width="512" height="512">
<path transform="translate(0,0)" fill="rgb(33,158,188)" d="M 321.328 1409.43 L 321.55 1410.32 C 327.395 1436.13 316.308 1457.8 346.894 1478.5 C 354.808 1483.85 366.573 1480.15 375.613 1479.99 L 353.286 1486.5 C 471.791 1616.87 497.399 1788.15 395.598 1937.72 L 378.311 1960.63 C 373.932 1965.93 368.829 1971.18 365.553 1977.23 C 353.25 1978.96 340.576 1978.44 328.211 1978.46 L 191.179 1978.67 C 174.002 1978.69 153.792 1981.47 137.297 1975.62 L 136 1975.15 C 95.8443 1960.92 96.7666 1923.42 103.174 1889.01 L 142.431 1717.39 C 155.684 1672.22 172.496 1627.19 191.337 1584.06 C 217.123 1525.04 250.578 1457.32 322.188 1447.88 L 321.658 1426.77 C 321.016 1420.96 321.189 1415.26 321.328 1409.43 z"/>
<path transform="translate(0,0)" fill="rgb(33,158,188)" d="M 1663.41 1374.34 L 1687.19 1383.28 C 1697.87 1384.16 1715.4 1393.32 1724.22 1398.74 C 1727.97 1403.62 1727.33 1422 1727.1 1428.9 C 1726.82 1437.56 1724.74 1437.02 1732.05 1441.03 C 1741.94 1446.45 1752.69 1450.42 1762.97 1455.04 C 1838.02 1488.5 1894.88 1679.01 1913.67 1749.8 L 1941.25 1869.88 C 1951.57 1927.2 1956.04 1977.89 1884.39 1978.49 L 1684.77 1978.53 C 1683.03 1971.84 1676.36 1965.91 1672.21 1961.27 C 1572.48 1849.63 1562.04 1665.77 1651.2 1545.07 C 1661.67 1530.9 1685.32 1506.06 1688.33 1488.27 C 1679.47 1482.32 1671.48 1480.27 1661.42 1477.21 C 1650.3 1475.58 1617.31 1476.99 1609.24 1472.32 C 1642.38 1441.09 1642.58 1407.73 1663.41 1374.34 z"/>
<path transform="translate(0,0)" fill="rgb(255,243,2)" d="M 1663.41 1374.34 L 1687.19 1383.28 L 1688 1384.76 C 1724.83 1402.35 1731.94 1405.12 1718.37 1451.28 C 1712.39 1466.72 1704.64 1473.51 1690.57 1481.3 L 1661.42 1477.21 C 1650.3 1475.58 1617.31 1476.99 1609.24 1472.32 C 1642.38 1441.09 1642.58 1407.73 1663.41 1374.34 z"/>
<path transform="translate(0,0)" fill="rgb(33,158,188)" d="M 668.503 473.056 C 653.61 455.593 636.523 440.711 619.343 425.598 L 568.295 380.7 C 516.901 336.203 498.555 331.201 552.902 269.826 L 665.256 144.556 C 719.505 82.6474 720.118 83.499 806 71.8196 L 901.409 60.458 C 935.471 57.1055 969.164 53.8452 1003.39 53.5262 L 1068.74 54.0668 C 1112.95 56.3175 1157.06 62.6388 1201 67.7313 C 1234.84 71.6532 1306.16 74.3253 1334.43 93.1226 L 1336 94.1861 C 1352.47 105.116 1365.41 123.191 1378.38 137.846 L 1484.01 256 C 1507.43 281.184 1549.35 317.897 1514.95 352.646 L 1379.75 471.027 L 1378.29 469.948 C 1370.42 464.046 1363.91 455.791 1356.45 449.291 C 1307.32 406.498 1246.97 395.325 1183.73 391.223 L 907.539 389.147 C 827.422 391.844 737.902 401.203 679.457 462.22 C 676.157 465.666 672.508 470.62 668.503 473.056 z"/>
<path transform="translate(0,0)" fill="rgb(255,243,2)" d="M 1015.2 146.436 C 1027.18 146.139 1042.31 145.828 1053.85 148.857 L 1062 150.975 C 1092.82 158.996 1092.71 187.192 1096.54 213.57 C 1105.5 275.354 1104.84 327.881 1032.22 347.942 C 995.807 357.609 948.417 311.789 945.904 276.833 C 944.112 251.899 954.028 180.101 970.5 161.615 C 982.053 148.648 998.98 147.272 1015.2 146.436 z"/>
<path transform="translate(0,0)" fill="rgb(142,202,230)" d="M 383.117 1375.5 C 413.89 1357.96 446.409 1346.89 479.994 1335.72 C 520.618 1322.21 572.252 1300.82 610.893 1329.46 C 629.221 1318.44 659.939 1323.24 680.451 1322.35 L 737.454 1317.54 L 737.123 1318.91 C 728.095 1360.4 722.667 1355.1 739.96 1398.24 C 759.8 1447.72 799.704 1533.69 855 1548.14 L 856.807 1548.63 C 881.876 1555.13 917.905 1546.46 939.5 1532.96 C 943.855 1530.23 948.405 1524.95 953.07 1523.34 C 928.865 1549.38 958.421 1575.81 963.931 1607.18 C 954.035 1643.62 949.206 1679.69 943.955 1717 L 932.398 1793.8 C 928.928 1816.92 901.921 1972.36 908.711 1977.37 C 890.643 1980.23 870.389 1978.59 852.135 1978.57 L 365.553 1978.21 C 368.829 1971.18 373.932 1965.93 378.311 1960.63 L 395.598 1937.72 C 497.399 1788.15 471.791 1616.87 353.286 1486.5 L 375.613 1479.99 C 366.573 1480.15 354.808 1483.85 346.894 1478.5 C 316.308 1457.8 327.395 1436.13 321.55 1410.32 L 321.328 1409.43 L 322.133 1397.15 L 383.117 1375.5 z"/>
<path transform="translate(0,0)" fill="rgb(2,48,71)" d="M 383.117 1375.5 C 413.89 1357.96 446.409 1346.89 479.994 1335.72 C 520.618 1322.21 572.252 1300.82 610.893 1329.46 C 621.333 1343.45 638.66 1357.79 636.076 1376.88 C 631.865 1407.99 615.878 1426.04 587 1433.99 L 558.62 1442.01 C 540.288 1447.47 452.915 1478.01 436.849 1470.26 C 434.4 1472.93 434.48 1472.56 430.844 1472.87 L 416.045 1474.09 C 409.317 1474.64 381.017 1476.71 375.613 1479.99 C 366.573 1480.15 354.808 1483.85 346.894 1478.5 C 316.308 1457.8 327.395 1436.13 321.55 1410.32 L 321.328 1409.43 L 322.133 1397.15 L 383.117 1375.5 z"/>
<path transform="translate(0,0)" fill="rgb(255,243,2)" d="M 383.117 1375.5 C 398.131 1406.94 409.396 1447.36 436.849 1470.26 C 434.4 1472.93 434.48 1472.56 430.844 1472.87 L 416.045 1474.09 C 409.317 1474.64 381.017 1476.71 375.613 1479.99 C 366.573 1480.15 354.808 1483.85 346.894 1478.5 C 316.308 1457.8 327.395 1436.13 321.55 1410.32 L 321.328 1409.43 L 322.133 1397.15 L 383.117 1375.5 z"/>
<path transform="translate(0,0)" fill="rgb(254,254,254)" d="M 600.6 1645.24 L 713.18 1644.93 C 738.565 1644.91 765.612 1643.09 790.823 1645.35 C 877.014 1653.08 895.561 1758.63 795.986 1792.72 C 793.658 1793.83 790.528 1794.44 788 1795.17 C 723.155 1813.89 567.618 1813.11 544.08 1727.73 L 543.65 1726.13 C 535.739 1697.34 554.416 1664.04 580.327 1651.42 L 581.811 1650.71 C 587.958 1647.75 593.917 1646.49 600.6 1645.24 z"/>
<path transform="translate(0,0)" fill="rgb(255,209,171)" d="M 668.503 473.056 C 672.508 470.62 676.157 465.666 679.457 462.22 C 737.902 401.203 827.422 391.844 907.539 389.147 L 1183.73 391.223 C 1246.97 395.325 1307.32 406.498 1356.45 449.291 C 1363.91 455.791 1370.42 464.046 1378.29 469.948 L 1379.75 471.027 C 1403.54 498.973 1379.81 544.125 1361.28 568.003 C 1352.37 579.476 1359.14 589.633 1359.57 604.118 L 1359.97 763.936 L 1367.21 762.515 C 1375.41 760.562 1387.25 766.67 1393.85 771.153 C 1437.78 800.998 1415.55 877.954 1367.34 896.609 C 1353.15 902.103 1339.19 901.084 1324.27 900.987 C 1320.71 908.907 1319.83 918.606 1317.38 927.054 C 1304.24 972.398 1283.72 1013.97 1256.18 1052.35 C 1248.06 1063.66 1238.71 1073.82 1231.58 1085.87 C 1220.92 1087.4 1215.98 1098.74 1209.06 1106.18 C 1163.09 1155.59 1082.67 1194.38 1015.2 1190.19 C 950.377 1186.15 881.267 1151.67 836.928 1105.5 C 832.309 1100.69 827.629 1090.74 820.126 1090.97 C 809.046 1072.16 793.882 1055.35 782.048 1036.83 C 755.466 995.221 736.795 950.15 719.741 904.034 C 661.121 904.667 613.614 849.555 634.924 791 C 637.222 784.687 640.658 779.175 646.021 774.993 L 649.305 772.48 C 661.078 764.12 674.789 764.716 688.327 767.084 L 687.878 611.7 C 687.933 602.763 692.149 575.805 687.966 569.634 L 676.222 552.374 C 660.178 528.62 654.267 499.294 668.503 473.056 z"/>
<path transform="translate(0,0)" fill="rgb(2,48,71)" d="M 668.503 473.056 C 672.508 470.62 676.157 465.666 679.457 462.22 C 737.902 401.203 827.422 391.844 907.539 389.147 L 1183.73 391.223 C 1246.97 395.325 1307.32 406.498 1356.45 449.291 C 1363.91 455.791 1370.42 464.046 1378.29 469.948 L 1379.75 471.027 C 1403.54 498.973 1379.81 544.125 1361.28 568.003 C 1352.37 579.476 1359.14 589.633 1359.57 604.118 L 1359.97 763.936 C 1360.39 780.523 1346.64 805.032 1328.63 790.371 L 1327.52 789.479 C 1317.74 781.289 1322.2 741.678 1322.18 729.422 L 1322.23 615.012 C 1322.34 611.475 1323.44 606.882 1322.92 603.475 C 1235.7 679.211 1111.17 728.461 994.932 720.539 C 913.697 715.003 813.377 674.806 748.275 623.4 C 743.096 619.31 732.426 613.253 728.445 608.786 L 726.021 605.663 C 724.366 620.254 725.655 636.349 725.643 651.085 L 725.551 745.412 C 725.532 755.876 730.219 789.127 719.5 795.586 C 697.476 808.857 689.684 783.275 688.327 767.084 L 687.878 611.7 C 687.933 602.763 692.149 575.805 687.966 569.634 L 676.222 552.374 C 660.178 528.62 654.267 499.294 668.503 473.056 z"/>
<path transform="translate(0,0)" fill="rgb(142,202,230)" d="M 819.789 1090.97 C 827.629 1090.74 832.309 1100.69 836.928 1105.5 C 881.267 1151.67 950.377 1186.15 1015.2 1190.19 C 1082.67 1194.38 1163.09 1155.59 1209.06 1106.18 C 1215.98 1098.74 1220.92 1087.4 1231.58 1085.87 C 1226.21 1116.26 1237.33 1230.68 1221.17 1246.96 C 1257.11 1262.44 1290.82 1283.03 1311.79 1317.45 L 1436.17 1329.29 C 1492.51 1291.69 1575.94 1337.88 1631.44 1361.52 C 1641.97 1366.01 1653.04 1369.55 1663.41 1374.34 C 1642.58 1407.73 1642.38 1441.09 1609.24 1472.32 C 1617.31 1476.99 1650.3 1475.58 1661.42 1476.93 C 1671.48 1480.27 1679.47 1482.32 1688.33 1488.27 C 1685.32 1506.06 1661.67 1530.9 1651.2 1545.07 C 1562.04 1665.77 1572.48 1849.63 1672.21 1961.27 C 1676.36 1965.91 1683.03 1971.84 1684.77 1977.9 L 982.461 1978.25 C 976.064 1977.37 967.692 1978.37 961.11 1978.35 L 908.711 1978.24 C 901.921 1972.36 928.928 1816.92 932.398 1793.8 L 943.955 1717 C 949.206 1679.69 954.035 1643.62 963.931 1607.18 C 958.421 1575.81 928.865 1549.38 953.07 1523.34 C 948.405 1524.95 943.855 1530.23 939.5 1532.96 C 917.905 1546.46 881.876 1555.13 856.807 1548.63 L 855 1548.14 C 799.704 1533.69 759.8 1447.72 739.96 1398.24 C 722.667 1355.1 728.095 1360.4 737.123 1318.91 L 737.454 1317.34 C 749.719 1292.57 780.686 1269.74 804.038 1257.32 C 811.816 1253.18 822.024 1250.32 828.214 1244 C 816.71 1218.6 816.183 1125.5 819.789 1090.97 z"/>
<path transform="translate(0,0)" fill="rgb(2,48,71)" d="M 1436.17 1329.44 C 1492.51 1291.69 1575.94 1337.88 1631.44 1361.52 C 1641.97 1366.01 1653.04 1369.55 1663.41 1374.34 C 1642.58 1407.73 1642.38 1441.09 1609.24 1472.32 L 1607.47 1472.88 C 1594.36 1475.05 1520.86 1450.06 1504.76 1445.22 C 1467.37 1434 1413.5 1425.29 1412.26 1375.5 C 1411.79 1356.54 1424 1342.41 1436.17 1329.44 z"/>
<path transform="translate(0,0)" fill="rgb(254,254,254)" d="M 1424.92 1644.89 L 1425.3 1643.59 C 1462.13 1642.58 1490.7 1649.08 1506.67 1687.05 L 1507.35 1688.69 C 1521.15 1721.71 1505.47 1752.72 1477.84 1772.5 C 1427.58 1808.5 1338.55 1808.82 1278.14 1798.71 C 1237.47 1790.16 1178.67 1760.05 1186.61 1709.63 L 1186.88 1708 C 1195.29 1654.68 1242.86 1645.25 1286.76 1645.08 L 1424.92 1644.89 z"/>
<path transform="translate(0,0)" fill="rgb(2,48,71)" d="M 963.931 1607.18 C 975.595 1604.87 987.696 1605.12 999.482 1605.04 L 1051.54 1604.98 C 1059.44 1605.01 1076.29 1603.2 1082.71 1607.64 L 1143.24 1978.07 L 982.461 1978.33 C 976.064 1977.37 967.692 1978.37 961.11 1978.35 L 908.711 1978.24 C 901.921 1972.36 928.928 1816.92 932.398 1793.8 L 943.955 1717 C 949.206 1679.69 954.035 1643.62 963.931 1607.18 z"/>
<path transform="translate(0,0)" fill="rgb(33,158,188)" d="M 819.789 1090.97 C 827.629 1090.74 832.309 1100.69 836.928 1105.5 C 881.267 1151.67 950.377 1186.15 1015.2 1190.19 C 1082.67 1194.38 1163.09 1155.59 1209.06 1106.18 C 1215.98 1098.74 1220.92 1087.4 1231.58 1085.87 C 1226.21 1116.26 1237.33 1230.68 1221.17 1246.96 C 1257.11 1262.44 1290.82 1283.03 1311.79 1317.45 C 1320.06 1349.68 1326.25 1362.13 1313.38 1393.68 C 1303.89 1416.94 1291.58 1439.24 1278.81 1460.82 C 1248.64 1511.82 1215.05 1560.95 1148.94 1548.38 L 1147.06 1548.04 C 1132.16 1545.26 1118.91 1537.29 1104.5 1533 C 1103.13 1534.54 1103.43 1536.12 1103.27 1538.13 C 1101.52 1562.24 1090.95 1585.64 1082.71 1608.11 C 1076.29 1603.2 1059.44 1605.01 1051.54 1604.98 L 999.482 1605.04 C 987.696 1605.12 975.595 1604.87 963.931 1606.73 C 958.421 1575.81 928.865 1549.38 953.07 1523.34 C 948.405 1524.95 943.855 1530.23 939.5 1532.96 C 917.905 1546.46 881.876 1555.13 856.807 1548.63 L 855 1548.14 C 799.704 1533.69 759.8 1447.72 739.96 1398.24 C 722.667 1355.1 728.095 1360.4 737.123 1318.91 L 737.454 1317.34 C 749.719 1292.57 780.686 1269.74 804.038 1257.32 C 811.816 1253.18 822.024 1250.32 828.214 1244 C 816.71 1218.6 816.183 1125.5 819.789 1090.97 z"/>
<path transform="translate(0,0)" fill="rgb(243,189,147)" d="M 819.789 1090.97 C 827.629 1090.74 832.309 1100.69 836.928 1105.5 C 881.267 1151.67 950.377 1186.15 1015.2 1190.19 C 1082.67 1194.38 1163.09 1155.59 1209.06 1106.18 C 1215.98 1098.74 1220.92 1087.4 1231.58 1085.87 C 1226.21 1116.26 1237.33 1230.68 1221.17 1246.96 C 1212.29 1249.57 1200.44 1261.69 1193.28 1267.54 C 1142.17 1309.35 1062.39 1376.38 1025.11 1432.03 C 1005.75 1407.73 983.507 1385.7 961.188 1364.13 L 881.39 1290.21 C 863.885 1274.56 844.899 1260.42 828.86 1243.22 L 828.214 1244 C 816.71 1218.6 816.183 1125.5 819.789 1090.97 z"/>
</svg>